<svg width="134" height="40" viewBox="0 0 134 40" fill="none" xmlns="http://www.w3.org/2000/svg">
<path d="M0 6C0 2.68629 2.68629 0 6 0H128C131.314 0 134 2.68629 134 6V34C134 37.3137 131.314 40 128 40H6C2.68629 40 0 37.3137 0 34V6Z" fill="#86C6FF"/>
<path d="M65.0691 17.852H57.9851V16.13H64.9991V14.66H56.1511V19.308H65.0691V17.852ZM60.5191 25.804C58.7971 25.804 57.9151 25.51 57.9151 24.838C57.9151 24.166 58.7971 23.858 60.5191 23.858C62.2411 23.858 63.1231 24.166 63.1231 24.838C63.1231 25.51 62.2411 25.804 60.5191 25.804ZM60.5191 22.458C57.7331 22.458 56.0531 23.312 56.0531 24.838C56.0531 26.35 57.7331 27.204 60.5191 27.204C63.3051 27.204 64.9991 26.35 64.9991 24.838C64.9991 23.312 63.3051 22.458 60.5191 22.458ZM54.7371 20.204V21.716H66.3991V20.204H54.7371ZM68.89 24.866H76.086V27.162H77.934V23.41H68.89V24.866ZM74.364 21.212V20.288H78.116V18.888H70.878V18.048H77.85V14.562H69.03V15.962H76.03V16.746H69.058V20.288H72.516V21.212H67.602V22.682H79.278V21.212H74.364Z" fill="white" fill-opacity="0.4"/>
</svg>
