<svg width="134" height="40" viewBox="0 0 134 40" fill="none" xmlns="http://www.w3.org/2000/svg">
<path d="M0 6C0 2.68629 2.68629 0 6 0H128C131.314 0 134 2.68629 134 6V34C134 37.3137 131.314 40 128 40H6C2.68629 40 0 37.3137 0 34V6Z" fill="#E0E0E0"/>
<path d="M55.9131 20.666C57.3831 20.302 58.5031 19.462 59.0351 18.356C59.5811 19.378 60.6731 20.134 62.1151 20.484L62.5771 19.588C60.7991 19.182 59.5811 18.104 59.5811 16.844V16.816H62.3531V15.906H59.5811V14.506H58.4331V15.906H55.6751V16.816H58.4471V16.844C58.4471 18.188 57.2291 19.336 55.4231 19.756L55.9131 20.666ZM63.1231 21.128C60.3791 21.52 57.2291 21.534 54.8351 21.534L54.9891 22.5C56.0391 22.5 57.2291 22.486 58.4611 22.444V26.672H59.6091V22.374C60.7991 22.304 62.0311 22.178 63.2071 21.982L63.1231 21.128ZM64.0191 14.492V27.05H65.1671V14.492H64.0191ZM78.578 20.61C76.38 20.218 73.986 18.37 73.986 16.284V15.318H72.782V16.284C72.782 18.37 70.402 20.218 68.204 20.61L68.68 21.562C70.612 21.156 72.572 19.854 73.384 18.062C74.196 19.854 76.17 21.156 78.088 21.562L78.578 20.61ZM73.958 24.46V21.408H72.81V24.46H67.742V25.398H79.138V24.46H73.958Z" fill="#828282"/>
</svg>
